<svg xmlns="http://www.w3.org/2000/svg" width="26" height="26" viewBox="0 0 26 26">
  <g id="Group_3140" data-name="Group 3140" transform="translate(-1440 -1085)">
    <circle id="Ellipse_937" data-name="Ellipse 937" cx="13" cy="13" r="13" transform="translate(1440 1085)" fill="#d7defc"/>
    <g id="Group_3040" data-name="Group 3040" transform="translate(1438.659 1089.27)">
      <path id="Path_3775" data-name="Path 3775" d="M21.348,5.575l-.955-.365a.538.538,0,0,0-.33.017.392.392,0,0,0-.226.243l-4.186,13.1a1.23,1.23,0,0,0-.243-.017,1.526,1.526,0,0,0-1.355.834L6.863,17.09a.346.346,0,1,0-.208.66L13.9,20.06a1.511,1.511,0,1,0,3.022,0,1.547,1.547,0,0,0-.608-1.216l4.1-12.9.695.3a.352.352,0,0,0,.243-.66Zm-5.94,15.319a.816.816,0,1,1,.816-.816A.815.815,0,0,1,15.408,20.893Z" transform="translate(0 -3.799)" fill="#202945"/>
      <path id="Path_3776" data-name="Path 3776" d="M17.855,39.769,22.77,41.3a1.52,1.52,0,0,0,.278.035.949.949,0,0,0,.9-.66L25.5,35.739a.966.966,0,0,0-.625-1.181L19.957,33.03a.966.966,0,0,0-1.181.625L17.23,38.588A.966.966,0,0,0,17.855,39.769Zm.035-.99,1.546-4.933a.27.27,0,0,1,.313-.156l4.933,1.546a.27.27,0,0,1,.156.313l-1.546,4.933a.27.27,0,0,1-.313.156l-4.933-1.546A.27.27,0,0,1,17.89,38.779Z" transform="translate(-8.908 -26.773)" fill="#202945"/>
      <path id="Path_3777" data-name="Path 3777" d="M31.862,44.1,35.2,45.208a.22.22,0,0,0,.1.017.32.32,0,0,0,.33-.243.368.368,0,0,0-.226-.434L32.07,43.436a.359.359,0,0,0-.434.226A.368.368,0,0,0,31.862,44.1Z" transform="translate(-20.83 -35.39)" fill="#202945"/>
      <path id="Path_3778" data-name="Path 3778" d="M39.232,6.049l3.613,1.129a1.52,1.52,0,0,0,.278.035,1.07,1.07,0,0,0,.452-.1.961.961,0,0,0,.452-.556l1.129-3.63a.925.925,0,0,0-.069-.712.961.961,0,0,0-.556-.452L40.917.63a.966.966,0,0,0-1.181.625l-1.129,3.63a.925.925,0,0,0,.069.712A.961.961,0,0,0,39.232,6.049Zm.035-.973L40.4,1.446a.27.27,0,0,1,.313-.156l3.63,1.129a.232.232,0,0,1,.139.122.246.246,0,0,1,.017.191l-1.129,3.63a.309.309,0,0,1-.122.139.246.246,0,0,1-.191.017l-3.63-1.129a.309.309,0,0,1-.139-.122A.246.246,0,0,1,39.267,5.076Z" transform="translate(-26.568)" fill="#202945"/>
      <path id="Path_3779" data-name="Path 3779" d="M50.855,10.889l.868.278a.22.22,0,0,0,.1.017.349.349,0,0,0,.33-.243.345.345,0,0,0-.226-.434l-.868-.278a.346.346,0,1,0-.208.66Z" transform="translate(-36.523 -7.949)" fill="#202945"/>
    </g>
  </g>
</svg>
