<svg xmlns="http://www.w3.org/2000/svg" xmlns:xlink="http://www.w3.org/1999/xlink" width="131" height="131" viewBox="0 0 131 131">
  <defs>
    <filter id="Rectangle_3447" x="0" y="0" width="131" height="131" filterUnits="userSpaceOnUse">
      <feOffset dy="3" input="SourceAlpha"/>
      <feGaussianBlur stdDeviation="7.5" result="blur"/>
      <feFlood flood-color="#202945" flood-opacity="0.043"/>
      <feComposite operator="in" in2="blur"/>
      <feComposite in="SourceGraphic"/>
    </filter>
  </defs>
  <g id="Group_3229" data-name="Group 3229" transform="translate(-672.5 -261.5)">
    <g transform="matrix(1, 0, 0, 1, 672.5, 261.5)" filter="url(#Rectangle_3447)">
      <rect id="Rectangle_3447-2" data-name="Rectangle 3447" width="86" height="86" rx="28" transform="translate(22.5 19.5)" fill="#d7defc"/>
    </g>
    <g id="Group_3182" data-name="Group 3182" transform="translate(691.877 277.375)">
      <path id="Path_3808" data-name="Path 3808" d="M64.644,42.748,46.906,27.915a1.244,1.244,0,0,0-1.6,0L27.571,42.748a1.245,1.245,0,1,0,1.593,1.914l0,0,.032-.027V63.516a1.245,1.245,0,0,0,2.49,0V42.551L46.107,30.493,60.526,42.551V63.516a1.245,1.245,0,1,0,2.49,0V44.632l.032.027a1.245,1.245,0,0,0,1.6-1.906Z" transform="translate(0)" fill="#202945"/>
      <path id="Path_3809" data-name="Path 3809" d="M52.387,50.083H46.578a1.245,1.245,0,0,0,0,2.49h5.809a1.245,1.245,0,1,0,0-2.49Z" transform="translate(-3.099 -3.821)" fill="#202945"/>
      <path id="Path_3810" data-name="Path 3810" d="M38.333,58.495a1.245,1.245,0,0,0,1.245,1.245h5.809a1.245,1.245,0,1,0,0-2.49H39.578a1.245,1.245,0,0,0-1.245,1.245Z" transform="translate(-1.908 -5.041)" fill="#202945"/>
      <path id="Path_3811" data-name="Path 3811" d="M58.8,57.25H52.995a1.245,1.245,0,1,0,0,2.49H58.8a1.245,1.245,0,1,0,0-2.49Z" transform="translate(-4.19 -5.041)" fill="#202945"/>
      <path id="Path_3812" data-name="Path 3812" d="M39.578,67.865h5.809a1.245,1.245,0,1,0,0-2.49H39.578a1.245,1.245,0,1,0,0,2.49Z" transform="translate(-1.908 -6.423)" fill="#202945"/>
      <path id="Path_3813" data-name="Path 3813" d="M58.8,65.375H52.995a1.245,1.245,0,1,0,0,2.49H58.8a1.245,1.245,0,1,0,0-2.49Z" transform="translate(-4.19 -6.423)" fill="#202945"/>
    </g>
  </g>
</svg>
