<svg xmlns="http://www.w3.org/2000/svg" width="25" height="21.876" viewBox="0 0 25 21.876">
  <g id="photo" transform="translate(0 -30.522)">
    <path id="Path_2613" data-name="Path 2613" d="M189.062,199.446a3.456,3.456,0,1,1-4.888,0,3.456,3.456,0,0,1,4.888,0" transform="translate(-174.119 -159.681)" fill="#fc4513"/>
    <path id="Path_2614" data-name="Path 2614" d="M21.875,33.647H19.716l-1.563-3.125H6.846L5.284,33.649l-2.156,0a3.131,3.131,0,0,0-3.12,3.124L0,49.272A3.129,3.129,0,0,0,3.125,52.4h18.75A3.128,3.128,0,0,0,25,49.273v-12.5A3.128,3.128,0,0,0,21.875,33.647ZM12.5,48.491a6.25,6.25,0,1,1,6.25-6.25A6.257,6.257,0,0,1,12.5,48.491Z" transform="translate(0 0)" fill="#fc4513"/>
  </g>
</svg>
