<svg xmlns="http://www.w3.org/2000/svg" width="25.433" height="24.536" viewBox="0 0 25.433 24.536">
  <g id="Group_3239" data-name="Group 3239" transform="translate(-6.64 -8.18)">
    <path id="Path_3896" data-name="Path 3896" d="M30.408,76.5a2.639,2.639,0,1,0-2.639,2.639A2.639,2.639,0,0,0,30.408,76.5Zm-4.081,0a1.466,1.466,0,1,1,1.466,1.466h0A1.466,1.466,0,0,1,26.326,76.5Z" transform="translate(-13.069 -46.422)" fill="#abadc1"/>
    <path id="Path_3897" data-name="Path 3897" d="M68.378,76.5a2.639,2.639,0,1,0-2.639,2.639A2.639,2.639,0,0,0,68.378,76.5Zm-4.081,0a1.466,1.466,0,1,1,1.466,1.466A1.466,1.466,0,0,1,64.3,76.5Z" transform="translate(-39.905 -46.422)" fill="#abadc1"/>
    <path id="Path_3898" data-name="Path 3898" d="M11.71,11.268,11.2,8.18H6.64V9.353h3.565L12.926,25.9h15.54V24.729H13.923l-.4-2.454H29.352l2.721-11.007ZM28.423,21.1h-15.1L11.9,12.44H30.569Z" transform="translate(0 0)" fill="#abadc1"/>
    <rect id="Rectangle_3538" data-name="Rectangle 3538" width="11.045" height="1.173" transform="translate(15.316 14.578)" fill="#abadc1"/>
    <rect id="Rectangle_3539" data-name="Rectangle 3539" width="8.113" height="1.173" transform="translate(16.782 17.803)" fill="#abadc1"/>
  </g>
</svg>
