<svg xmlns="http://www.w3.org/2000/svg" width="266.729" height="77.672" viewBox="0 0 266.729 77.672">
  <g id="Group_3009" data-name="Group 3009" transform="translate(-6.826 -78.503)">
    <path id="Path_3710" data-name="Path 3710" d="M23.5,88.552H6.826v4.369a4.892,4.892,0,0,0,4.895,4.889H23.5Z" transform="translate(0 45.528)" fill="#340040"/>
    <rect id="Rectangle_3231" data-name="Rectangle 3231" width="16.672" height="9.263" transform="translate(6.827 124.817)" fill="#680080"/>
    <rect id="Rectangle_3232" data-name="Rectangle 3232" width="16.672" height="9.263" transform="translate(6.827 115.553)" fill="#9c00bf"/>
    <rect id="Rectangle_3233" data-name="Rectangle 3233" width="16.672" height="9.263" transform="translate(6.827 106.291)" fill="#d000ff"/>
    <rect id="Rectangle_3234" data-name="Rectangle 3234" width="16.672" height="9.263" transform="translate(6.827 97.028)" fill="#dc40ff"/>
    <rect id="Rectangle_3235" data-name="Rectangle 3235" width="16.672" height="9.263" transform="translate(6.827 87.766)" fill="#e780ff"/>
    <path id="Path_3711" data-name="Path 3711" d="M23.5,78.5H11.721a4.9,4.9,0,0,0-4.895,4.9v4.364H23.5Z" transform="translate(0 0)" fill="#f3bfff"/>
    <rect id="Rectangle_3236" data-name="Rectangle 3236" width="16.67" height="9.257" transform="translate(23.5 134.079)" fill="#280140"/>
    <rect id="Rectangle_3237" data-name="Rectangle 3237" width="16.67" height="9.263" transform="translate(23.5 124.817)" fill="#500380"/>
    <rect id="Rectangle_3238" data-name="Rectangle 3238" width="16.67" height="9.263" transform="translate(23.5 115.553)" fill="#7804bf"/>
    <rect id="Rectangle_3239" data-name="Rectangle 3239" width="16.67" height="9.263" transform="translate(23.5 106.291)" fill="#a005ff"/>
    <rect id="Rectangle_3240" data-name="Rectangle 3240" width="16.67" height="9.263" transform="translate(23.5 97.028)" fill="#b844ff"/>
    <rect id="Rectangle_3241" data-name="Rectangle 3241" width="16.67" height="9.263" transform="translate(23.5 87.766)" fill="#d082ff"/>
    <rect id="Rectangle_3242" data-name="Rectangle 3242" width="16.67" height="9.263" transform="translate(23.5 78.503)" fill="#e7c1ff"/>
    <rect id="Rectangle_3243" data-name="Rectangle 3243" width="16.67" height="9.257" transform="translate(40.17 134.079)" fill="#190040"/>
    <rect id="Rectangle_3244" data-name="Rectangle 3244" width="16.67" height="9.263" transform="translate(40.17 124.817)" fill="#320080"/>
    <rect id="Rectangle_3245" data-name="Rectangle 3245" width="16.67" height="9.263" transform="translate(40.17 115.553)" fill="#4b00bf"/>
    <rect id="Rectangle_3246" data-name="Rectangle 3246" width="16.67" height="9.263" transform="translate(40.17 106.291)" fill="#6400ff"/>
    <rect id="Rectangle_3247" data-name="Rectangle 3247" width="16.67" height="9.263" transform="translate(40.17 97.028)" fill="#8b40ff"/>
    <rect id="Rectangle_3248" data-name="Rectangle 3248" width="16.67" height="9.263" transform="translate(40.17 87.766)" fill="#b280ff"/>
    <rect id="Rectangle_3249" data-name="Rectangle 3249" width="16.67" height="9.263" transform="translate(40.17 78.503)" fill="#d8bfff"/>
    <rect id="Rectangle_3250" data-name="Rectangle 3250" width="16.67" height="9.257" transform="translate(56.84 134.079)" fill="#070040"/>
    <rect id="Rectangle_3251" data-name="Rectangle 3251" width="16.67" height="9.263" transform="translate(56.84 124.817)" fill="#0f0080"/>
    <rect id="Rectangle_3252" data-name="Rectangle 3252" width="16.67" height="9.263" transform="translate(56.84 115.553)" fill="#1600bf"/>
    <rect id="Rectangle_3253" data-name="Rectangle 3253" width="16.67" height="9.263" transform="translate(56.84 106.291)" fill="#1d00ff"/>
    <rect id="Rectangle_3254" data-name="Rectangle 3254" width="16.67" height="9.263" transform="translate(56.84 97.028)" fill="#5640ff"/>
    <rect id="Rectangle_3255" data-name="Rectangle 3255" width="16.67" height="9.263" transform="translate(56.84 87.766)" fill="#8e80ff"/>
    <rect id="Rectangle_3256" data-name="Rectangle 3256" width="16.67" height="9.263" transform="translate(56.84 78.503)" fill="#c7bfff"/>
    <rect id="Rectangle_3257" data-name="Rectangle 3257" width="16.672" height="9.257" transform="translate(73.51 134.079)" fill="#000c40"/>
    <rect id="Rectangle_3258" data-name="Rectangle 3258" width="16.672" height="9.263" transform="translate(73.51 124.817)" fill="#001880"/>
    <rect id="Rectangle_3259" data-name="Rectangle 3259" width="16.672" height="9.263" transform="translate(73.51 115.553)" fill="#0024bf"/>
    <rect id="Rectangle_3260" data-name="Rectangle 3260" width="16.672" height="9.263" transform="translate(73.51 106.291)" fill="#0030ff"/>
    <rect id="Rectangle_3261" data-name="Rectangle 3261" width="16.672" height="9.263" transform="translate(73.51 97.028)" fill="#4064ff"/>
    <rect id="Rectangle_3262" data-name="Rectangle 3262" width="16.672" height="9.263" transform="translate(73.51 87.766)" fill="#8098ff"/>
    <rect id="Rectangle_3263" data-name="Rectangle 3263" width="16.672" height="9.263" transform="translate(73.51 78.503)" fill="#bfcbff"/>
    <rect id="Rectangle_3264" data-name="Rectangle 3264" width="16.673" height="9.257" transform="translate(90.182 134.079)" fill="#001a40"/>
    <rect id="Rectangle_3265" data-name="Rectangle 3265" width="16.673" height="9.263" transform="translate(90.182 124.817)" fill="#003380"/>
    <rect id="Rectangle_3266" data-name="Rectangle 3266" width="16.673" height="9.263" transform="translate(90.182 115.553)" fill="#004dbf"/>
    <rect id="Rectangle_3267" data-name="Rectangle 3267" width="16.673" height="9.263" transform="translate(90.182 106.291)" fill="#06f"/>
    <rect id="Rectangle_3268" data-name="Rectangle 3268" width="16.673" height="9.263" transform="translate(90.182 97.028)" fill="#408cff"/>
    <rect id="Rectangle_3269" data-name="Rectangle 3269" width="16.673" height="9.263" transform="translate(90.182 87.766)" fill="#80b3ff"/>
    <rect id="Rectangle_3270" data-name="Rectangle 3270" width="16.673" height="9.263" transform="translate(90.182 78.503)" fill="#bfd9ff"/>
    <rect id="Rectangle_3271" data-name="Rectangle 3271" width="16.668" height="9.257" transform="translate(106.855 134.079)" fill="#001b33"/>
    <rect id="Rectangle_3272" data-name="Rectangle 3272" width="16.668" height="9.263" transform="translate(106.855 124.817)" fill="#003766"/>
    <rect id="Rectangle_3273" data-name="Rectangle 3273" width="16.668" height="9.263" transform="translate(106.855 115.553)" fill="#005299"/>
    <rect id="Rectangle_3274" data-name="Rectangle 3274" width="16.668" height="9.263" transform="translate(106.855 106.291)" fill="#006dcc"/>
    <rect id="Rectangle_3275" data-name="Rectangle 3275" width="16.668" height="9.263" transform="translate(106.855 97.028)" fill="#4092d9"/>
    <rect id="Rectangle_3276" data-name="Rectangle 3276" width="16.668" height="9.263" transform="translate(106.855 87.766)" fill="#80b6e6"/>
    <rect id="Rectangle_3277" data-name="Rectangle 3277" width="16.668" height="9.263" transform="translate(106.855 78.503)" fill="#bfdbf2"/>
    <rect id="Rectangle_3278" data-name="Rectangle 3278" width="16.67" height="9.257" transform="translate(123.523 134.079)" fill="#002922"/>
    <rect id="Rectangle_3279" data-name="Rectangle 3279" width="16.67" height="9.263" transform="translate(123.523 124.817)" fill="#005244"/>
    <rect id="Rectangle_3280" data-name="Rectangle 3280" width="16.67" height="9.263" transform="translate(123.523 115.553)" fill="#007a66"/>
    <rect id="Rectangle_3281" data-name="Rectangle 3281" width="16.67" height="9.263" transform="translate(123.523 106.291)" fill="#00a388"/>
    <rect id="Rectangle_3282" data-name="Rectangle 3282" width="16.67" height="9.263" transform="translate(123.523 97.028)" fill="#40baa6"/>
    <rect id="Rectangle_3283" data-name="Rectangle 3283" width="16.67" height="9.263" transform="translate(123.523 87.766)" fill="#80d1c4"/>
    <rect id="Rectangle_3284" data-name="Rectangle 3284" width="16.67" height="9.263" transform="translate(123.523 78.503)" fill="#bfe8e1"/>
    <rect id="Rectangle_3285" data-name="Rectangle 3285" width="16.676" height="9.257" transform="translate(140.193 134.079)" fill="#1e3106"/>
    <rect id="Rectangle_3286" data-name="Rectangle 3286" width="16.676" height="9.263" transform="translate(140.193 124.817)" fill="#3c610d"/>
    <rect id="Rectangle_3287" data-name="Rectangle 3287" width="16.676" height="9.263" transform="translate(140.193 115.553)" fill="#599213"/>
    <rect id="Rectangle_3288" data-name="Rectangle 3288" width="16.676" height="9.263" transform="translate(140.193 106.291)" fill="#77c219"/>
    <rect id="Rectangle_3289" data-name="Rectangle 3289" width="16.676" height="9.263" transform="translate(140.193 97.028)" fill="#99d153"/>
    <rect id="Rectangle_3290" data-name="Rectangle 3290" width="16.676" height="9.263" transform="translate(140.193 87.766)" fill="#bbe18c"/>
    <rect id="Rectangle_3291" data-name="Rectangle 3291" width="16.676" height="9.263" transform="translate(140.193 78.503)" fill="#ddf0c6"/>
    <rect id="Rectangle_3292" data-name="Rectangle 3292" width="16.662" height="9.257" transform="translate(156.868 134.079)" fill="#323800"/>
    <rect id="Rectangle_3293" data-name="Rectangle 3293" width="16.662" height="9.263" transform="translate(156.868 124.817)" fill="#637000"/>
    <rect id="Rectangle_3294" data-name="Rectangle 3294" width="16.662" height="9.263" transform="translate(156.868 115.553)" fill="#95a800"/>
    <rect id="Rectangle_3295" data-name="Rectangle 3295" width="16.662" height="9.263" transform="translate(156.868 106.291)" fill="#c6e000"/>
    <rect id="Rectangle_3296" data-name="Rectangle 3296" width="16.662" height="9.263" transform="translate(156.868 97.028)" fill="#d4e840"/>
    <rect id="Rectangle_3297" data-name="Rectangle 3297" width="16.662" height="9.263" transform="translate(156.868 87.766)" fill="#e3f080"/>
    <rect id="Rectangle_3298" data-name="Rectangle 3298" width="16.662" height="9.263" transform="translate(156.868 78.503)" fill="#f1f7bf"/>
    <rect id="Rectangle_3299" data-name="Rectangle 3299" width="16.675" height="9.257" transform="translate(173.53 134.079)" fill="#404000"/>
    <rect id="Rectangle_3300" data-name="Rectangle 3300" width="16.675" height="9.263" transform="translate(173.53 124.817)" fill="olive"/>
    <rect id="Rectangle_3301" data-name="Rectangle 3301" width="16.675" height="9.263" transform="translate(173.53 115.553)" fill="#bfbf00"/>
    <rect id="Rectangle_3302" data-name="Rectangle 3302" width="16.675" height="9.263" transform="translate(173.53 106.291)" fill="#ff0"/>
    <rect id="Rectangle_3303" data-name="Rectangle 3303" width="16.675" height="9.263" transform="translate(173.53 97.028)" fill="#ffff40"/>
    <rect id="Rectangle_3304" data-name="Rectangle 3304" width="16.675" height="9.263" transform="translate(173.53 87.766)" fill="#ffff80"/>
    <rect id="Rectangle_3305" data-name="Rectangle 3305" width="16.675" height="9.263" transform="translate(173.53 78.503)" fill="#ffffbf"/>
    <rect id="Rectangle_3306" data-name="Rectangle 3306" width="16.673" height="9.257" transform="translate(190.206 134.079)" fill="#403300"/>
    <rect id="Rectangle_3307" data-name="Rectangle 3307" width="16.673" height="9.263" transform="translate(190.206 124.817)" fill="#806600"/>
    <rect id="Rectangle_3308" data-name="Rectangle 3308" width="16.673" height="9.263" transform="translate(190.206 115.553)" fill="#bf9900"/>
    <rect id="Rectangle_3309" data-name="Rectangle 3309" width="16.673" height="9.263" transform="translate(190.206 106.291)" fill="#fc0"/>
    <rect id="Rectangle_3310" data-name="Rectangle 3310" width="16.673" height="9.263" transform="translate(190.206 97.028)" fill="#ffd940"/>
    <rect id="Rectangle_3311" data-name="Rectangle 3311" width="16.673" height="9.263" transform="translate(190.206 87.766)" fill="#ffe680"/>
    <rect id="Rectangle_3312" data-name="Rectangle 3312" width="16.673" height="9.263" transform="translate(190.206 78.503)" fill="#fff2bf"/>
    <rect id="Rectangle_3313" data-name="Rectangle 3313" width="16.665" height="9.257" transform="translate(206.878 134.079)" fill="#402600"/>
    <rect id="Rectangle_3314" data-name="Rectangle 3314" width="16.665" height="9.263" transform="translate(206.878 124.817)" fill="#804d00"/>
    <rect id="Rectangle_3315" data-name="Rectangle 3315" width="16.665" height="9.263" transform="translate(206.878 115.553)" fill="#bf7300"/>
    <rect id="Rectangle_3316" data-name="Rectangle 3316" width="16.665" height="9.263" transform="translate(206.878 106.291)" fill="#f90"/>
    <rect id="Rectangle_3317" data-name="Rectangle 3317" width="16.665" height="9.263" transform="translate(206.878 97.028)" fill="#ffb340"/>
    <rect id="Rectangle_3318" data-name="Rectangle 3318" width="16.665" height="9.263" transform="translate(206.878 87.766)" fill="#ffcc80"/>
    <rect id="Rectangle_3319" data-name="Rectangle 3319" width="16.665" height="9.263" transform="translate(206.878 78.503)" fill="#ffe6bf"/>
    <rect id="Rectangle_3320" data-name="Rectangle 3320" width="16.676" height="9.257" transform="translate(223.543 134.079)" fill="#401a00"/>
    <rect id="Rectangle_3321" data-name="Rectangle 3321" width="16.676" height="9.263" transform="translate(223.543 124.817)" fill="#803300"/>
    <rect id="Rectangle_3322" data-name="Rectangle 3322" width="16.676" height="9.263" transform="translate(223.543 115.553)" fill="#bf4d00"/>
    <rect id="Rectangle_3323" data-name="Rectangle 3323" width="16.676" height="9.263" transform="translate(223.543 106.291)" fill="#f60"/>
    <rect id="Rectangle_3324" data-name="Rectangle 3324" width="16.676" height="9.263" transform="translate(223.543 97.028)" fill="#ff8c40"/>
    <rect id="Rectangle_3325" data-name="Rectangle 3325" width="16.676" height="9.263" transform="translate(223.543 87.766)" fill="#ffb380"/>
    <rect id="Rectangle_3326" data-name="Rectangle 3326" width="16.676" height="9.263" transform="translate(223.543 78.503)" fill="#ffd9bf"/>
    <rect id="Rectangle_3327" data-name="Rectangle 3327" width="16.673" height="9.257" transform="translate(240.219 134.079)" fill="#400d00"/>
    <rect id="Rectangle_3328" data-name="Rectangle 3328" width="16.673" height="9.263" transform="translate(240.219 124.817)" fill="#801a00"/>
    <rect id="Rectangle_3329" data-name="Rectangle 3329" width="16.673" height="9.263" transform="translate(240.219 115.553)" fill="#bf2600"/>
    <rect id="Rectangle_3330" data-name="Rectangle 3330" width="16.673" height="9.263" transform="translate(240.219 106.291)" fill="#f30"/>
    <rect id="Rectangle_3331" data-name="Rectangle 3331" width="16.673" height="9.263" transform="translate(240.219 97.028)" fill="#ff6640"/>
    <rect id="Rectangle_3332" data-name="Rectangle 3332" width="16.673" height="9.263" transform="translate(240.219 87.766)" fill="#ff9980"/>
    <rect id="Rectangle_3333" data-name="Rectangle 3333" width="16.673" height="9.263" transform="translate(240.219 78.503)" fill="#ffccbf"/>
    <g id="Group_3008" data-name="Group 3008" transform="translate(6.826 146.911)">
      <path id="Path_3712" data-name="Path 3712" d="M23.5,90.872H10.266a3.44,3.44,0,0,0-3.44,3.44V96.69a3.441,3.441,0,0,0,3.44,3.445H23.5Z" transform="translate(-6.826 -90.872)"/>
      <rect id="Rectangle_3334" data-name="Rectangle 3334" width="16.67" height="9.263" transform="translate(16.674 0.001)" fill="#111"/>
      <rect id="Rectangle_3335" data-name="Rectangle 3335" width="16.67" height="9.263" transform="translate(33.344 0.001)" fill="#222"/>
      <rect id="Rectangle_3336" data-name="Rectangle 3336" width="16.67" height="9.263" transform="translate(50.014 0.001)" fill="#333"/>
      <rect id="Rectangle_3337" data-name="Rectangle 3337" width="16.672" height="9.263" transform="translate(66.684 0.001)" fill="#444"/>
      <rect id="Rectangle_3338" data-name="Rectangle 3338" width="16.673" height="9.263" transform="translate(83.356 0.001)" fill="#555"/>
      <rect id="Rectangle_3339" data-name="Rectangle 3339" width="16.668" height="9.263" transform="translate(100.029 0.001)" fill="#666"/>
      <rect id="Rectangle_3340" data-name="Rectangle 3340" width="16.67" height="9.263" transform="translate(116.697 0.001)" fill="#777"/>
      <rect id="Rectangle_3341" data-name="Rectangle 3341" width="16.676" height="9.263" transform="translate(133.367 0.001)" fill="#888"/>
      <rect id="Rectangle_3342" data-name="Rectangle 3342" width="16.662" height="9.263" transform="translate(150.042 0.001)" fill="#999"/>
      <rect id="Rectangle_3343" data-name="Rectangle 3343" width="16.675" height="9.263" transform="translate(166.704 0.001)" fill="#aaa"/>
      <rect id="Rectangle_3344" data-name="Rectangle 3344" width="16.673" height="9.263" transform="translate(183.38 0.001)" fill="#bbb"/>
      <rect id="Rectangle_3345" data-name="Rectangle 3345" width="16.665" height="9.263" transform="translate(200.052 0.001)" fill="#ccc"/>
      <rect id="Rectangle_3346" data-name="Rectangle 3346" width="16.676" height="9.263" transform="translate(216.717 0.001)" fill="#ddd"/>
      <rect id="Rectangle_3347" data-name="Rectangle 3347" width="16.673" height="9.263" transform="translate(233.393 0.001)" fill="#eee"/>
      <path id="Path_3713" data-name="Path 3713" d="M68.7,94.312a3.435,3.435,0,0,0-3.435-3.44H52.041v9.264H65.27A3.437,3.437,0,0,0,68.7,96.69Z" transform="translate(198.024 -90.872)" fill="#fff"/>
    </g>
    <path id="Path_3714" data-name="Path 3714" d="M68.7,88.552H52.041V97.81H63.816A4.891,4.891,0,0,0,68.7,92.921Z" transform="translate(204.85 45.528)" fill="#400000"/>
    <rect id="Rectangle_3348" data-name="Rectangle 3348" width="16.662" height="9.263" transform="translate(256.891 124.817)" fill="maroon"/>
    <rect id="Rectangle_3349" data-name="Rectangle 3349" width="16.662" height="9.263" transform="translate(256.891 115.553)" fill="#bf0000"/>
    <rect id="Rectangle_3350" data-name="Rectangle 3350" width="16.662" height="9.263" transform="translate(256.891 106.291)" fill="red"/>
    <rect id="Rectangle_3351" data-name="Rectangle 3351" width="16.662" height="9.263" transform="translate(256.891 97.028)" fill="#ff4040"/>
    <rect id="Rectangle_3352" data-name="Rectangle 3352" width="16.662" height="9.263" transform="translate(256.891 87.766)" fill="#ff8080"/>
    <path id="Path_3715" data-name="Path 3715" d="M68.7,83.4a4.9,4.9,0,0,0-4.889-4.9H52.041v9.264H68.7Z" transform="translate(204.85 0)" fill="#ffbfbf"/>
  </g>
</svg>
