<svg xmlns="http://www.w3.org/2000/svg" width="33.897" height="33.897" viewBox="0 0 33.897 33.897">
  <g id="company-selected" transform="translate(-4.101 -4.001)">
    <path id="Path_3866" data-name="Path 3866" d="M9,9.032A3.032,3.032,0,1,0,12.032,6,3,3,0,0,0,9,9.032Zm4.851,0a1.819,1.819,0,1,1-1.819-1.819A1.787,1.787,0,0,1,13.851,9.032Z" transform="translate(-1.928 -0.787)" fill="#fc4513"/>
    <path id="Path_3867" data-name="Path 3867" d="M46,9.032A3.032,3.032,0,1,0,49.032,6,3,3,0,0,0,46,9.032Zm4.851,0a1.819,1.819,0,1,1-1.819-1.819A1.787,1.787,0,0,1,50.851,9.032Z" transform="translate(-16.491 -0.787)" fill="#fc4513"/>
    <path id="Path_3868" data-name="Path 3868" d="M15.064,51.032a3.032,3.032,0,1,0-3.032,3.032A3,3,0,0,0,15.064,51.032Zm-4.851,0a1.819,1.819,0,1,1,1.819,1.819A1.787,1.787,0,0,1,10.213,51.032Z" transform="translate(-1.928 -17.317)" fill="#fc4513"/>
    <path id="Path_3869" data-name="Path 3869" d="M51.064,51.032a3.032,3.032,0,1,0-3.032,3.032A3,3,0,0,0,51.064,51.032Zm-4.851,0a1.819,1.819,0,1,1,1.819,1.819A1.787,1.787,0,0,1,46.213,51.032Z" transform="translate(-16.097 -17.317)" fill="#fc4513"/>
    <path id="Path_3870" data-name="Path 3870" d="M34.361,17.342a3.64,3.64,0,0,0-3.578,3.032H26.417a5.421,5.421,0,0,0-4.791-4.851V11.217a3.629,3.629,0,1,0-1.213,0v4.306a5.416,5.416,0,0,0-4.791,4.791H11.317a3.629,3.629,0,1,0,0,1.213h4.306a5.416,5.416,0,0,0,4.791,4.791v4.366a3.629,3.629,0,1,0,1.213,0V26.317a5.416,5.416,0,0,0,4.791-4.791h4.366a3.629,3.629,0,0,0,7.156-1.213A3.644,3.644,0,0,0,34.361,17.342Zm-15.767-9.7a2.426,2.426,0,1,1,2.426,2.426A2.433,2.433,0,0,1,18.594,7.639ZM7.678,23.406A2.426,2.426,0,1,1,10.1,20.98,2.433,2.433,0,0,1,7.678,23.406ZM23.445,34.321A2.426,2.426,0,1,1,21.019,31.9,2.433,2.433,0,0,1,23.445,34.321Zm-2.426-9.1a4.245,4.245,0,1,1,4.245-4.245A4.219,4.219,0,0,1,21.019,25.225Zm13.341-1.819a2.426,2.426,0,1,1,2.426-2.426A2.433,2.433,0,0,1,34.361,23.406Z" transform="translate(0)" fill="#fc4513"/>
  </g>
</svg>
