<svg id="creditccard-icon" xmlns="http://www.w3.org/2000/svg" width="25.134" height="19.219" viewBox="0 0 25.134 19.219">
  <path id="Path_3602" data-name="Path 3602" d="M21.118,0H4.016A4.021,4.021,0,0,0,0,4.024V15.195a4.021,4.021,0,0,0,4.016,4.024h17.1a4.021,4.021,0,0,0,4.016-4.024V4.024A4.021,4.021,0,0,0,21.118,0ZM4.016,1.259h17.1a2.759,2.759,0,0,1,2.756,2.762v.1H1.254V4.024A2.759,2.759,0,0,1,4.007,1.259Zm17.1,16.7H4.016A2.759,2.759,0,0,1,1.259,15.2V7.934H23.88v7.261a2.759,2.759,0,0,1-2.754,2.765Zm-8.272-6.917H3.6a.559.559,0,1,1,0-1.117h9.249a.559.559,0,0,1,0,1.117ZM8.222,13.556H3.6a.559.559,0,1,1,0-1.117H8.222a.559.559,0,1,1,0,1.117Z" transform="translate(0)" fill="#abadc1"/>
</svg>
