<svg id="dashboard" xmlns="http://www.w3.org/2000/svg" width="24" height="24" viewBox="0 0 24 24">
  <path id="Path_2097" data-name="Path 2097" d="M3,0A3.012,3.012,0,0,0,0,3v5A3.021,3.021,0,0,0,3,11H8a3.019,3.019,0,0,0,3-3.009V3A3.009,3.009,0,0,0,8,0ZM16,0a3.009,3.009,0,0,0-3,3v5A3.019,3.019,0,0,0,16,11h5a3.021,3.021,0,0,0,3-3.009V3a3.012,3.012,0,0,0-3-3ZM3,2H8A.971.971,0,0,1,9,3v5A.978.978,0,0,1,8,9H3A.98.98,0,0,1,2,7.994V3A.974.974,0,0,1,3,2ZM16,2h5a.974.974,0,0,1,1,1v5A.98.98,0,0,1,21,9H16a.978.978,0,0,1-1-1.005V3A.971.971,0,0,1,16,2ZM3,13a3.009,3.009,0,0,0-3,3v5a3.012,3.012,0,0,0,3,3H8a3.009,3.009,0,0,0,3-3V16a3.007,3.007,0,0,0-3-3Zm13,0a3.007,3.007,0,0,0-3,3v5a3.009,3.009,0,0,0,3,3h5a3.012,3.012,0,0,0,3-3V16a3.009,3.009,0,0,0-3-3ZM3,15H8a.969.969,0,0,1,1,1v5a.971.971,0,0,1-1,1H3a.974.974,0,0,1-1-1V16A.971.971,0,0,1,3,15Zm13,0h5a.971.971,0,0,1,1,1v5a.974.974,0,0,1-1,1H16a.971.971,0,0,1-1-1V16A.969.969,0,0,1,16,15Z" fill="#abadc1"/>
</svg>
