<svg xmlns="http://www.w3.org/2000/svg" width="18.689" height="10.771" viewBox="0 0 18.689 10.771">
  <path id="eye" d="M17.92,28.139a3.374,3.374,0,1,0,3.374,3.374A3.377,3.377,0,0,0,17.92,28.139Zm0,5.168a1.795,1.795,0,1,1,1.795-1.795A1.8,1.8,0,0,1,17.92,33.307Zm9.019-2.252a11.1,11.1,0,0,0-9.019-4.928A11.1,11.1,0,0,0,8.9,31.055l-.326.458.326.458A11.1,11.1,0,0,0,17.92,36.9a11.1,11.1,0,0,0,9.019-4.928l.326-.458ZM17.92,35.319a9.437,9.437,0,0,1-7.39-3.806,9.438,9.438,0,0,1,7.39-3.806,9.438,9.438,0,0,1,7.39,3.806A9.437,9.437,0,0,1,17.92,35.319Z" transform="translate(-8.575 -26.127)" fill="#abadc1"/>
</svg>
