<svg xmlns="http://www.w3.org/2000/svg" width="44" height="44" viewBox="0 0 44 44">
  <g id="Group_3228" data-name="Group 3228" transform="translate(-1496 -716)">
    <g id="Group_3021" data-name="Group 3021" transform="translate(1496 716)">
      <rect id="Rectangle_3064" data-name="Rectangle 3064" width="44" height="44" rx="22" fill="#20be0b"/>
    </g>
    <path id="Path_3761" data-name="Path 3761" d="M334.423,2286.377H316.708a1.245,1.245,0,0,1-.831-1.366c.022-1.562.007-3.125.007-4.688v-.31c-.217,0-.391,0-.564,0a1.5,1.5,0,0,1-1.567-1.556q-.02-3.829,0-7.657a1.5,1.5,0,0,1,1.593-1.556c.171,0,.342,0,.538,0v-.335q0-3.985,0-7.97a1.086,1.086,0,0,1,1.231-1.232q6.135,0,12.27-.005a.875.875,0,0,1,.719.333q2.42,2.779,4.857,5.544a1.088,1.088,0,0,1,.288.778c-.009.868,0,1.737,0,2.6v.283c.209,0,.373,0,.538,0a1.5,1.5,0,0,1,1.593,1.556q.021,3.828,0,7.657a1.5,1.5,0,0,1-1.593,1.556c-.171,0-.342,0-.538,0v.336c0,1.554-.015,3.108.007,4.662A1.245,1.245,0,0,1,334.423,2286.377Zm-5.369-25.61h-12.1v8.456h17.226v-2.594h-.307q-2.071,0-4.142,0c-.489,0-.676-.19-.677-.68q0-1.185,0-2.37Zm5.129,24.263v-5H316.949v5Zm1.474-14.621c-.62,0-1.191-.005-1.761.009-.058,0-.143.11-.164.183q-.764,2.66-1.514,5.324c-.05.178-.092.359-.153.6-.035-.116-.052-.165-.065-.215-.51-1.881-1.023-3.762-1.523-5.646-.057-.214-.15-.274-.356-.259-.242.017-.486,0-.729,0h-.9a.834.834,0,0,0,.013.118q1.2,3.75,2.4,7.5a.239.239,0,0,0,.28.192c.521-.007,1.042-.013,1.563,0a.329.329,0,0,0,.385-.271c.559-1.7,1.135-3.385,1.7-5.076C335.1,2272.07,335.369,2271.266,335.657,2270.408Zm-8.034.231c-.4-.1-.763-.225-1.135-.281a3.868,3.868,0,0,0-2.963.55,2.1,2.1,0,0,0-.406,2.975,3.438,3.438,0,0,0,1.362.927c.413.178.833.345,1.229.556a.718.718,0,0,1,.4.782.779.779,0,0,1-.6.645,2.458,2.458,0,0,1-1.312.016c-.428-.091-.844-.237-1.283-.365l-.347,1.433a5.215,5.215,0,0,0,3.888.152,2.143,2.143,0,0,0,1.455-1.866,2.065,2.065,0,0,0-1.112-2.148c-.418-.24-.88-.4-1.321-.608a6.863,6.863,0,0,1-.651-.324.668.668,0,0,1,.116-1.234,1.93,1.93,0,0,1,.557-.109,3.747,3.747,0,0,1,1.727.355Zm-6.188,1.384c.1-.365.186-.707.273-1.05.1-.377.1-.379-.294-.487a5.44,5.44,0,0,0-2.294-.149,3.816,3.816,0,0,0-3.145,2.261,4.482,4.482,0,0,0-.176,3.153,3.354,3.354,0,0,0,2.306,2.344,5.537,5.537,0,0,0,2.47.175c.379-.049.75-.155,1.134-.236l-.276-1.411a4.225,4.225,0,0,1-1.886.215,2.2,2.2,0,0,1-1.546-.806,2.859,2.859,0,0,1-.489-2.3,2.207,2.207,0,0,1,2.07-1.965A4.041,4.041,0,0,1,321.435,2272.023Z" transform="translate(1192.257 -1534.7)" fill="#fff"/>
  </g>
</svg>
