<svg id="inventory" xmlns="http://www.w3.org/2000/svg" width="28" height="27.417" viewBox="0 0 28 27.417">
  <rect id="Rectangle_2746" data-name="Rectangle 2746" width="6.459" height="6.459" transform="translate(0 20.958)" fill="#abadc1"/>
  <rect id="Rectangle_2747" data-name="Rectangle 2747" width="6.459" height="6.459" transform="translate(10.77 20.958)" fill="#abadc1"/>
  <rect id="Rectangle_2748" data-name="Rectangle 2748" width="6.459" height="6.459" transform="translate(21.541 20.958)" fill="#abadc1"/>
  <rect id="Rectangle_2749" data-name="Rectangle 2749" width="6.459" height="6.459" transform="translate(0 10.479)" fill="#abadc1"/>
  <path id="Path_2104" data-name="Path 2104" d="M49.158,43.645v5.513H43.645V43.645h5.513m.473-.473H43.172v6.459h6.459V43.172Z" transform="translate(-32.402 -32.693)" fill="#abadc1"/>
  <rect id="Rectangle_2750" data-name="Rectangle 2750" width="6.459" height="6.459" transform="translate(21.541 10.479)" fill="#abadc1"/>
  <path id="Path_2105" data-name="Path 2105" d="M28.652,23.708v5.513H23.139V23.708h5.513m.473-.473H22.666v6.459h6.459V23.235Z" transform="translate(-22.666 -23.235)" fill="#abadc1"/>
  <path id="Path_2106" data-name="Path 2106" d="M49.158,23.708v5.513H43.645V23.708h5.513m.473-.473H43.172v6.459h6.459V23.235Z" transform="translate(-32.402 -23.235)" fill="#abadc1"/>
  <rect id="Rectangle_2751" data-name="Rectangle 2751" width="6.459" height="6.459" transform="translate(21.541)" fill="#abadc1"/>
</svg>
