<svg xmlns="http://www.w3.org/2000/svg" width="36.876" height="26.119" viewBox="0 0 36.876 26.119">
  <g id="Group_3276" data-name="Group 3276" transform="translate(-8.38 -15.27)">
    <path id="Path_3889" data-name="Path 3889" d="M25.671,29.017V20.43H24.11v9.032a.781.781,0,0,0,.437.7l4.642,2.263h0l.006,0,1.276.622a.1.1,0,0,0,.015,0l.738.358.623-1.389-1.578-.762Z" transform="translate(-3.451 -1.132)" fill="#abadc1"/>
    <path id="Path_3890" data-name="Path 3890" d="M21.44,15.27A13.06,13.06,0,1,0,34.5,28.33,13.059,13.059,0,0,0,21.44,15.27Zm0,24.558a11.5,11.5,0,1,1,11.5-11.5A11.5,11.5,0,0,1,21.44,39.828Z" transform="translate(0)" fill="#abadc1"/>
    <path id="Path_3891" data-name="Path 3891" d="M51.147,15.27H38.79v1.561H51.928V15.27Z" transform="translate(-6.672 0)" fill="#abadc1"/>
    <path id="Path_3892" data-name="Path 3892" d="M39.571,46.73H38.79v1.561H51.928V46.73H39.571Z" transform="translate(-6.672 -6.902)" fill="#abadc1"/>
    <path id="Path_3893" data-name="Path 3893" d="M45.781,25.76H45v1.561h8.29V25.76H45.781Z" transform="translate(-8.034 -2.301)" fill="#abadc1"/>
    <path id="Path_3894" data-name="Path 3894" d="M45.781,36.24H45V37.8h8.29V36.24H45.781Z" transform="translate(-8.034 -4.601)" fill="#abadc1"/>
  </g>
</svg>
