<svg xmlns="http://www.w3.org/2000/svg" width="13.507" height="19.857" viewBox="0 0 13.507 19.857">
  <g id="Group_3228" data-name="Group 3228" transform="translate(-1489.033 -491)">
    <g id="Group_3013" data-name="Group 3013" transform="translate(1489.033 491)">
      <path id="Path_3720" data-name="Path 3720" d="M61.406,58a3.4,3.4,0,0,1,3.348,3.406,3.35,3.35,0,0,1-3.348,3.348A3.4,3.4,0,0,1,58,61.406,3.45,3.45,0,0,1,61.406,58Zm0,1.385a2.045,2.045,0,0,0-2.02,2.02,2,2,0,0,0,2.02,1.963,1.946,1.946,0,0,0,1.963-1.963A2,2,0,0,0,61.406,59.385Z" transform="translate(-54.652 -54.652)" fill="#fff"/>
      <path id="Path_3721" data-name="Path 3721" d="M8.947,14.72a7.542,7.542,0,0,1,1.9.52c1.212.4,1.963,1.154,1.963,1.963s-.75,1.559-1.963,2.02a13.888,13.888,0,0,1-4.1.635,13.279,13.279,0,0,1-4.1-.635C1.443,18.76.635,18.01.635,17.2s.808-1.559,2.02-1.963A7.775,7.775,0,0,1,4.5,14.72C2.251,12.468,0,9.178,0,6.754a6.754,6.754,0,1,1,13.507,0C13.507,9.236,11.2,12.468,8.947,14.72ZM5.541,15.759a13.355,13.355,0,0,0-2.482.52c-.75.289-1.27.635-1.27.924s.52.635,1.27.924a11.02,11.02,0,0,0,3.694.577,11.02,11.02,0,0,0,3.694-.577c.75-.289,1.212-.635,1.212-.924s-.462-.635-1.212-.924a13.064,13.064,0,0,0-2.54-.52,15.087,15.087,0,0,1-1.154.981C6.407,16.451,6,16.163,5.541,15.759ZM6.754,1.385A5.4,5.4,0,0,0,1.385,6.754c0,2.482,3.463,6.7,5.368,8.254,1.847-1.616,5.368-5.715,5.368-8.254A5.4,5.4,0,0,0,6.754,1.385Z" fill="#fff"/>
    </g>
  </g>
</svg>
