<svg xmlns="http://www.w3.org/2000/svg" width="16.2" height="14.607" viewBox="0 0 16.2 14.607">
  <g id="Group_3180" data-name="Group 3180" transform="translate(-14.9 -38.9)">
    <path id="Path_3767" data-name="Path 3767" d="M22.524,53.4a1.89,1.89,0,0,0,1.9-1.878V50.135a.564.564,0,0,0-1.128,0v1.391a.763.763,0,0,1-.773.75H16.892a.752.752,0,0,1-.763-.75V40.878a.752.752,0,0,1,.763-.75h5.632a.761.761,0,0,1,.773.75v1.616a.564.564,0,0,0,1.128,0V40.878A1.892,1.892,0,0,0,22.524,39H16.892A1.882,1.882,0,0,0,15,40.878v10.65a1.884,1.884,0,0,0,1.892,1.878h5.632Z" fill="#abadc1" stroke="#abadc1" stroke-width="0.2"/>
    <path id="Path_3768" data-name="Path 3768" d="M140.334,163.138a.563.563,0,0,0-.8.04.555.555,0,0,0,.04.79l1.829,1.646h-9.542a.564.564,0,1,0,0,1.128h9.545L139.58,168.4a.569.569,0,0,0,.378.989.554.554,0,0,0,.378-.146l2.917-2.635a.563.563,0,0,0,0-.836Z" transform="translate(-112.44 -119.877)" fill="#abadc1" stroke="#abadc1" stroke-width="0.2"/>
  </g>
</svg>
