<svg xmlns="http://www.w3.org/2000/svg" width="30" height="27.013" viewBox="0 0 30 27.013">
  <g id="logout" transform="translate(-15 -39)">
    <path id="Path_3767" data-name="Path 3767" d="M29.107,66.007a3.544,3.544,0,0,0,3.566-3.522V59.877a1.058,1.058,0,0,0-2.116,0v2.607a1.43,1.43,0,0,1-1.45,1.406H18.547a1.41,1.41,0,0,1-1.431-1.406V42.522a1.41,1.41,0,0,1,1.431-1.406h10.56a1.426,1.426,0,0,1,1.45,1.406v3.03a1.058,1.058,0,0,0,2.116,0v-3.03A3.548,3.548,0,0,0,29.107,39H18.547A3.528,3.528,0,0,0,15,42.522V62.491a3.532,3.532,0,0,0,3.547,3.522h10.56Z" fill="#abadc1"/>
    <path id="Path_3768" data-name="Path 3768" d="M148.238,163.266a1.055,1.055,0,0,0-1.493.075,1.04,1.04,0,0,0,.075,1.481l3.429,3.087h-17.89a1.058,1.058,0,1,0,0,2.116h17.9l-3.429,3.111a1.067,1.067,0,0,0,.709,1.854,1.039,1.039,0,0,0,.709-.274l5.47-4.941a1.056,1.056,0,0,0,0-1.568Z" transform="translate(-109.063 -116.276)" fill="#abadc1"/>
  </g>
</svg>
