<svg xmlns="http://www.w3.org/2000/svg" width="27.267" height="20.97" viewBox="0 0 27.267 20.97">
  <g id="Group_3236" data-name="Group 3236" transform="translate(-13.5 -21.929)">
    <g id="Group_3235" data-name="Group 3235" transform="translate(13.5 21.929)">
      <g id="Group_3232" data-name="Group 3232" transform="translate(0 0)">
        <g id="Group_3231" data-name="Group 3231">
          <path id="Path_3887" data-name="Path 3887" d="M40.02,42.9H14.247a.747.747,0,0,1-.747-.747V22.677a.747.747,0,0,1,.747-.747H40.02a.747.747,0,0,1,.747.747V42.152A.747.747,0,0,1,40.02,42.9ZM14.994,41.405H39.273V23.424H14.994Z" transform="translate(-13.5 -21.93)" fill="#abadc1"/>
        </g>
      </g>
      <g id="Group_3234" data-name="Group 3234" transform="translate(0)">
        <g id="Group_3233" data-name="Group 3233">
          <path id="Path_3888" data-name="Path 3888" d="M27.133,35.8a.748.748,0,0,1-.518-.208L13.729,23.215a.747.747,0,0,1,.517-1.286H40.019a.747.747,0,0,1,.517,1.286L27.65,35.593A.743.743,0,0,1,27.133,35.8ZM16.1,23.423l11.03,10.6,11.03-10.6Z" transform="translate(-13.5 -21.929)" fill="#abadc1"/>
        </g>
      </g>
    </g>
  </g>
</svg>
