<svg id="notification" xmlns="http://www.w3.org/2000/svg" width="20.675" height="21.868" viewBox="0 0 20.675 21.868">
  <g id="Group_2959" data-name="Group 2959" transform="translate(0 0)">
    <path id="Path_3463" data-name="Path 3463" d="M30.759,40.79h1.59a1.988,1.988,0,1,0,3.976,0h1.59a3.578,3.578,0,1,1-7.157,0Zm13.916-2.784v.4a1.588,1.588,0,0,1-1.591,1.59H25.591A1.59,1.59,0,0,1,24,38.4v-.4a2.785,2.785,0,0,1,2.386-2.754v-4.8a7.952,7.952,0,0,1,15.9,0v4.8A2.782,2.782,0,0,1,44.675,38.006Zm-1.59,0a1.192,1.192,0,0,0-1.2-1.192,1.191,1.191,0,0,1-1.189-1.19V30.452a6.362,6.362,0,0,0-12.723,0v5.172a1.191,1.191,0,0,1-1.189,1.19,1.2,1.2,0,0,0-1.2,1.192v.4H43.084Z" transform="translate(-24 -22.5)" fill="#abadc1"/>
  </g>
</svg>
