<svg xmlns="http://www.w3.org/2000/svg" width="26" height="26" viewBox="0 0 26 26">
  <g id="Group_3132" data-name="Group 3132" transform="translate(-1462 -635)">
    <circle id="Ellipse_937" data-name="Ellipse 937" cx="13" cy="13" r="13" transform="translate(1462 635)" fill="#fcebd7"/>
    <g id="Group_3115" data-name="Group 3115" transform="translate(1437.5 619.8)">
      <path id="Path_3806" data-name="Path 3806" d="M44.2,26.684a2.747,2.747,0,0,0-2.071-.865H39.992V24.613a.084.084,0,0,1-.023-.068v-.023c0-.023,0-.023-.023-.046,0-.023-.023-.023-.023-.046a.022.022,0,0,0-.023-.023c-.023-.023-.023-.046-.046-.046l-2.048-2.048a.42.42,0,0,0-.273-.114h-5.6a.377.377,0,0,0-.273.114l-2.048,2.048c-.023.023-.023.046-.046.046l-.023.023c0,.023-.023.023-.023.046s0,.023-.023.046v8.671a.4.4,0,0,0,.387.387h1.457a.205.205,0,0,0,.114-.023,1.544,1.544,0,0,0,1.525,1.3,1.518,1.518,0,0,0,1.5-1.275h6.009A1.536,1.536,0,0,0,42,34.854a1.518,1.518,0,0,0,1.5-1.275h1.161a.4.4,0,0,0,.387-.387V29.164A3.6,3.6,0,0,0,44.2,26.684Zm-9.149-3.71h2.321l1.275,1.275h-3.6Zm-2.982,0h2.185v1.275H30.8Zm.865,11.13a.751.751,0,1,1,.751-.751A.758.758,0,0,1,32.937,34.1Zm6.259-7.9h-.023v6.623H34.507a.171.171,0,0,0-.114.023A1.524,1.524,0,0,0,32.937,31.8a1.554,1.554,0,0,0-1.457,1.047.422.422,0,0,0-.159-.046H30.274V25H39.2Zm2.754,7.9a.751.751,0,1,1,.751-.751A.758.758,0,0,1,41.95,34.1Zm2.3-1.3h-.842a1.532,1.532,0,0,0-2.89,0h-.523V26.593h2.117c1.32,0,2.139.979,2.139,2.572Z" fill="#fc4513"/>
      <path id="Path_3807" data-name="Path 3807" d="M41.687,46.893h3l-.592.592a.372.372,0,0,0,0,.546.385.385,0,0,0,.546,0L45.9,46.779c.023,0,.023-.023.046-.046a.022.022,0,0,0,.023-.023c0-.023.023-.023.023-.046.023-.023.023-.023.023-.046v-.182c-.023-.023-.023-.023-.023-.046s-.023-.023-.023-.046a.022.022,0,0,1-.023-.023c-.023,0-.023-.023-.046-.046l-1.184-1.184a.386.386,0,1,0-.546.546l.523.523h-3a.4.4,0,0,0-.387.387A.335.335,0,0,0,41.687,46.893Z" transform="translate(-9.114 -17.591)" fill="#fc4513"/>
    </g>
  </g>
</svg>
