<svg id="Group_1720" data-name="Group 1720" xmlns="http://www.w3.org/2000/svg" width="46" height="46" viewBox="0 0 46 46">
  <circle id="Ellipse_690" data-name="Ellipse 690" cx="23" cy="23" r="23" fill="#dbe3ef"/>
  <g id="Group_1485" data-name="Group 1485" transform="translate(11.964 10.065)">
    <path id="Path_2025" data-name="Path 2025" d="M27.261,4.436H13.812a.58.58,0,0,0-.414.174L6.717,11.441h0l0,0a.518.518,0,0,0-.048.074.556.556,0,0,0-.072.11.569.569,0,0,0-.045.221V30.042a.578.578,0,0,0,.578.579H27.261a.579.579,0,0,0,.579-.579h0V5.015a.579.579,0,0,0-.579-.579ZM13.382,6.282v4.989H8.5Zm13.3,23.182H7.7V12.429h6.256a.579.579,0,0,0,.579-.578h0V5.594H26.682Z" transform="translate(-6.547 -4.436)" fill="#202945"/>
    <path id="Path_2026" data-name="Path 2026" d="M11.322,24.436a.578.578,0,0,0-.579.578h0V36.021a.579.579,0,0,0,.578.579h7.925a.579.579,0,0,0,.579-.579h0V25.015a.578.578,0,0,0-.578-.579H11.322Zm7.345,11.006H11.9V25.594h6.766Z" transform="translate(-8.314 -12.86)" fill="#202945"/>
    <path id="Path_2027" data-name="Path 2027" d="M29.829,19.931h4.794a.579.579,0,1,0,0-1.158H29.829a.579.579,0,0,0,0,1.158Z" transform="translate(-16.109 -10.474)" fill="#202945"/>
    <path id="Path_2028" data-name="Path 2028" d="M29.829,26.1h4.794a.579.579,0,1,0,0-1.158H29.829a.579.579,0,0,0,0,1.158Z" transform="translate(-16.109 -13.073)" fill="#202945"/>
    <path id="Path_2029" data-name="Path 2029" d="M29.829,32.269h4.794a.579.579,0,1,0,0-1.158H29.829a.579.579,0,0,0,0,1.158Z" transform="translate(-16.109 -15.671)" fill="#202945"/>
    <path id="Path_2030" data-name="Path 2030" d="M29.829,38.439h4.794a.579.579,0,1,0,0-1.158H29.829a.579.579,0,0,0,0,1.158Z" transform="translate(-16.109 -18.27)" fill="#202945"/>
    <path id="Path_2031" data-name="Path 2031" d="M29.829,44.608h4.794a.579.579,0,1,0,0-1.158H29.829a.579.579,0,0,0,0,1.158Z" transform="translate(-16.109 -20.868)" fill="#202945"/>
  </g>
</svg>
