<svg xmlns="http://www.w3.org/2000/svg" width="26" height="26" viewBox="0 0 26 26">
  <g id="Group_3037" data-name="Group 3037" transform="translate(-1440 -848)">
    <circle id="Ellipse_937" data-name="Ellipse 937" cx="13" cy="13" r="13" transform="translate(1440 848)" fill="#fcebd7"/>
    <g id="Group_3036" data-name="Group 3036" transform="translate(1447 854)">
      <path id="Path_3773" data-name="Path 3773" d="M5.865.529V1.48H7.293v.971a6.18,6.18,0,1,0,.951,0V1.48H9.67V.529Zm1.9,2.853a5.229,5.229,0,1,1-5.23,5.229A5.221,5.221,0,0,1,7.768,3.382Z" transform="translate(-1.588 -0.529)" fill="#fc4513"/>
      <path id="Path_3774" data-name="Path 3774" d="M8.406,4.756a.474.474,0,0,0-.468.481v3.8a.475.475,0,0,0,.236.412L11.028,11.1a.475.475,0,1,0,.5-.809l-.025-.014L8.889,8.766V5.237a.475.475,0,0,0-.47-.481Z" transform="translate(-2.233 -0.958)" fill="#fc4513"/>
    </g>
  </g>
</svg>
