<svg xmlns="http://www.w3.org/2000/svg" width="13.939" height="13.939" viewBox="0 0 13.939 13.939">
  <g id="Group_3179" data-name="Group 3179" transform="translate(-18.22 -18.219)">
    <g id="Group_3178" data-name="Group 3178" transform="translate(18.22 18.219)">
      <path id="Path_3882" data-name="Path 3882" d="M18.9,32.158H31.478a.682.682,0,0,0,.681-.681v-2.7a5.151,5.151,0,0,0-2.833-4.608l-.171-.087.064-.181a4.274,4.274,0,1,0-8.059,0l.064.181-.171.087a5.149,5.149,0,0,0-2.833,4.608v2.7A.681.681,0,0,0,18.9,32.158Zm6.289-12.581a2.915,2.915,0,1,1-2.915,2.915A2.918,2.918,0,0,1,25.189,19.578Zm-5.611,9.2a3.828,3.828,0,0,1,2.21-3.455l.146-.068.109.118a4.258,4.258,0,0,0,6.293,0l.109-.118.146.068a3.829,3.829,0,0,1,2.21,3.455V30.8H19.578Z" transform="translate(-18.22 -18.219)" fill="#abadc1"/>
    </g>
  </g>
</svg>
