<svg id="reports" xmlns="http://www.w3.org/2000/svg" width="26.267" height="31.781" viewBox="0 0 26.267 31.781">
  <g id="Group_1578" data-name="Group 1578">
    <path id="Path_2107" data-name="Path 2107" d="M35.2,2.5H17.15a1.783,1.783,0,0,0-1.771,1.771V7.179H12.471A1.783,1.783,0,0,0,10.7,8.95v23.56a1.783,1.783,0,0,0,1.771,1.771H30.517a1.783,1.783,0,0,0,1.771-1.771V29.6H35.2a1.783,1.783,0,0,0,1.771-1.771V4.271A1.805,1.805,0,0,0,35.2,2.5ZM30.851,32.476a.309.309,0,0,1-.334.3H12.471a.3.3,0,0,1-.3-.3V8.916a.3.3,0,0,1,.3-.3h2.907V27.831A1.783,1.783,0,0,0,17.15,29.6h13.7ZM35.5,27.831a.335.335,0,0,1-.334.334H17.15a.335.335,0,0,1-.334-.334V4.271a.335.335,0,0,1,.334-.334H35.2a.335.335,0,0,1,.334.334v23.56Z" transform="translate(-10.7 -2.5)" fill="#abadc1"/>
    <path id="Path_2108" data-name="Path 2108" d="M49.239,53.2H39.376a.676.676,0,1,0,0,1.352h9.863a.676.676,0,1,0,0-1.352Z" transform="translate(-28.69 -36.191)" fill="#abadc1"/>
    <path id="Path_2109" data-name="Path 2109" d="M49.239,66.2H39.376a.676.676,0,1,0,0,1.352h9.863a.676.676,0,1,0,0-1.352Z" transform="translate(-28.69 -44.83)" fill="#abadc1"/>
    <path id="Path_2110" data-name="Path 2110" d="M49.239,40.3H39.376a.676.676,0,0,0,0,1.352h9.863a.682.682,0,0,0,.676-.676A.663.663,0,0,0,49.239,40.3Z" transform="translate(-28.69 -27.619)" fill="#abadc1"/>
    <path id="Path_2111" data-name="Path 2111" d="M44.146,26.6h1.2a.242.242,0,0,0,.246-.246V24.446a.242.242,0,0,0-.246-.246h-1.2a.242.242,0,0,0-.246.246v1.905A.264.264,0,0,0,44.146,26.6Z" transform="translate(-32.738 -16.896)" fill="#abadc1"/>
    <path id="Path_2112" data-name="Path 2112" d="M53.846,23.479h1.2a.242.242,0,0,0,.246-.246V19.946a.242.242,0,0,0-.246-.246h-1.2a.242.242,0,0,0-.246.246V23.2A.271.271,0,0,0,53.846,23.479Z" transform="translate(-39.177 -13.883)" fill="#abadc1"/>
    <path id="Path_2113" data-name="Path 2113" d="M63.546,20.5h1.2a.242.242,0,0,0,.246-.246V15.646a.264.264,0,0,0-.246-.246h-1.2a.242.242,0,0,0-.246.246v4.609A.264.264,0,0,0,63.546,20.5Z" transform="translate(-45.616 -11.436)" fill="#abadc1"/>
  </g>
</svg>
