<svg id="returns" xmlns="http://www.w3.org/2000/svg" width="28" height="26.695" viewBox="0 0 28 26.695">
  <path id="Path_2306" data-name="Path 2306" d="M37.638,47.87V46.3H49.233a.773.773,0,0,1,.764.783v9.68a.774.774,0,0,1-.764.783H22.764A.774.774,0,0,1,22,56.768V37.737h1.527V55.985H48.469V47.87Z" transform="translate(-22 -30.855)" fill="#abadc1"/>
  <path id="Path_2307" data-name="Path 2307" d="M47.668,48.63v5.947a.713.713,0,0,1-1.127.58l-4.164-2.974a.713.713,0,0,1,0-1.16l4.164-2.974A.713.713,0,0,1,47.668,48.63Z" transform="translate(-31.674 -35.016)" fill="#abadc1"/>
  <path id="Path_2308" data-name="Path 2308" d="M74.713,36.5h0a.713.713,0,0,1,.713.713v4.278a.713.713,0,0,1-.713.713h0A.713.713,0,0,1,74,41.491V37.213A.713.713,0,0,1,74.713,36.5Z" transform="translate(-47.43 -29.628)" fill="#abadc1" fill-rule="evenodd"/>
  <path id="Path_2309" data-name="Path 2309" d="M48.713,25h0a.713.713,0,0,1,.713.713v5.229a.713.713,0,0,1-.713.713h0A.713.713,0,0,1,48,30.942V25.713A.713.713,0,0,1,48.713,25Z" transform="translate(-34.715 -24.172)" fill="#abadc1" fill-rule="evenodd"/>
  <path id="Path_2310" data-name="Path 2310" d="M22.77,30.883a.723.723,0,0,1-.73-.921l2.025-6.2a.76.76,0,0,1,.73-.505H47.21a.759.759,0,0,1,.73.5l2.029,6.2a.724.724,0,0,1-.73.922Zm25.437-1.426-1.562-4.772H25.361L23.8,29.457Z" transform="translate(-22.003 -23.259)" fill="#abadc1"/>
</svg>
