<svg xmlns="http://www.w3.org/2000/svg" width="33.5" height="27.681" viewBox="0 0 33.5 27.681">
  <path id="Path_3769" data-name="Path 3769" d="M33.28,11.857,28.916,7.493a.749.749,0,0,0-.53-.22H23.318V.75a.75.75,0,0,0-.75-.75H.75A.75.75,0,0,0,0,.75V19.659a.75.75,0,0,0,.75.75H4.019A4.378,4.378,0,1,0,11.682,23.3h0a4.347,4.347,0,0,0-1.109-2.886H22.928A4.347,4.347,0,0,0,21.819,23.3a4.386,4.386,0,0,0,8.772,0h0a4.347,4.347,0,0,0-1.109-2.885H32.75a.75.75,0,0,0,.75-.75V12.387A.749.749,0,0,0,33.28,11.857ZM1.5,1.5H21.818V18.909H1.5Zm8.682,21.8A2.886,2.886,0,1,1,7.3,20.409,2.89,2.89,0,0,1,10.182,23.3Zm18.909,0a2.886,2.886,0,1,1-2.9-2.885h.02A2.891,2.891,0,0,1,29.091,23.3ZM32,18.91H23.318V8.773h4.757L32,12.7Z" fill="#fc4513"/>
</svg>
