<svg xmlns="http://www.w3.org/2000/svg" width="174" height="174" viewBox="0 0 174 174">
  <g id="Group_3229" data-name="Group 3229" transform="translate(-712 -729)">
    <circle id="avatar" cx="87" cy="87" r="87" transform="translate(712 729)" fill="#eff3f9"/>
    <g id="Group_3185" data-name="Group 3185" transform="translate(749.102 766.011)">
      <path id="Path_3885" data-name="Path 3885" d="M30.746,13.4a26.215,26.215,0,0,0-2.924,31.865L50,80.255l22.177-34.99A26.244,26.244,0,0,0,30.746,13.4Zm32.38,17.852A13.126,13.126,0,1,1,50,18.126h0A13.126,13.126,0,0,1,63.126,31.252Z" fill="#abadc1"/>
      <path id="Path_3886" data-name="Path 3886" d="M86.1,82.288c0-7.109-12.35-10.827-24.883-12.136l-3.058,4.824c15.02,1.154,22.856,5.247,22.856,7.312,0,2.689-11.776,7.627-31.017,7.627s-31.017-4.938-31.017-7.627c0-2.065,7.836-6.158,22.855-7.312l-3.057-4.823C26.247,71.462,13.9,75.179,13.9,82.288,13.9,91.022,32.612,95,50,95S86.1,91.022,86.1,82.288Z" fill="#abadc1"/>
    </g>
  </g>
</svg>
